<?xml version="1.0" encoding="iso-8859-1"?>
<!-- Generator: Adobe Illustrator 19.0.0, SVG Export Plug-In . SVG Version: 6.00 Build 0)  -->
<svg version="1.1" id="Layer_1" xmlns="http://www.w3.org/2000/svg" xmlns:xlink="http://www.w3.org/1999/xlink" x="0px" y="0px"
	 viewBox="0 0 512 512" style="enable-background:new 0 0 512 512;" xml:space="preserve">
<circle style="fill:#CD2900;" cx="256" cy="256" r="256"/>
<path style="fill:#AC2201;" d="M256,0c-11.317,0-22.461,0.744-33.391,2.167C348.216,18.53,445.217,125.933,445.217,256
	s-97.002,237.47-222.609,253.833C233.539,511.256,244.683,512,256,512c141.385,0,256-114.616,256-256S397.385,0,256,0z"/>
<g>
	<path style="fill:#FCFCFC;" d="M200.348,412.383c-85.12,0-155.266-69.226-156.369-154.316
		c-0.542-41.853,15.421-81.459,44.949-111.524c29.509-30.047,68.789-46.71,110.608-46.924l0.805-0.002
		c35.447,0,70.166,12.187,97.762,34.316l2.246,1.801c2.938,2.356,3.179,6.743,0.515,9.406l-31.382,31.383
		c-2.212,2.212-5.709,2.474-8.227,0.618l-1.405-1.036c-13.966-10.302-30.313-17.064-47.555-19.037
		c-31.77-3.635-62.023,7.315-83.72,29.852c-18.948,19.682-28.811,45.594-27.769,72.964c0.978,25.757,11.842,49.857,30.588,67.861
		c18.715,17.973,43.203,27.872,68.954,27.872c37.842-0.036,71.768-20.909,88.85-54.539h-63.42c-2.058,0-3.725-1.668-3.725-3.725
		v-49.314c0-2.058,1.668-3.725,3.725-3.725H345.2c2.807,0,5.083,2.276,5.082,5.083l-0.003,11.75
		c-0.029,81.693-65.802,149.522-146.62,151.201C202.558,412.371,201.455,412.383,200.348,412.383z"/>
	<path style="fill:#FCFCFC;" d="M377.878,229.294v-23.387c0-2.763-2.239-5.002-5.002-5.002h-23.387
		c-2.763,0-5.002-2.239-5.002-5.002v-35.631c0-2.763,2.239-5.002,5.002-5.002h23.387c2.763,0,5.002-2.239,5.002-5.002V126.88
		c0-2.763,2.239-5.002,5.002-5.002h35.631c2.763,0,5.002,2.239,5.002,5.002v23.387c0,2.763,2.239,5.002,5.002,5.002h23.387
		c2.763,0,5.002,2.239,5.002,5.002v35.631c0,2.763-2.239,5.002-5.002,5.002h-23.387c-2.763,0-5.002,2.239-5.002,5.002v23.387
		c0,2.763-2.239,5.002-5.002,5.002H382.88C380.118,234.296,377.878,232.056,377.878,229.294z"/>
</g>
<g>
</g>
<g>
</g>
<g>
</g>
<g>
</g>
<g>
</g>
<g>
</g>
<g>
</g>
<g>
</g>
<g>
</g>
<g>
</g>
<g>
</g>
<g>
</g>
<g>
</g>
<g>
</g>
<g>
</g>
</svg>
